<?xml version="1.0" encoding="utf-8"?>
<!-- Generator: Adobe Illustrator 27.1.1, SVG Export Plug-In . SVG Version: 6.00 Build 0)  -->
<svg version="1.1" id="Layer_1" xmlns="http://www.w3.org/2000/svg" xmlns:xlink="http://www.w3.org/1999/xlink" x="0px" y="0px"
	 viewBox="0 0 110 135" style="enable-background:new 0 0 110 135;" xml:space="preserve">
<style type="text/css">
	.st0{fill-rule:evenodd;clip-rule:evenodd;fill:#FFFFFF;}
</style>
<path class="st0" d="M44.7,19.4c0.7,1.2-1.1,2.2-1.8,1L41.5,18c-0.3-0.5-0.1-1.1,0.4-1.4c0.5-0.3,1.1-0.1,1.4,0.4L44.7,19.4z
	 M36.1,27.2c1.2,0.7,0.1,2.4-1,1.8l-2.4-1.4c-1.2-0.7-0.1-2.4,1-1.8L36.1,27.2z M32.6,38.3c1.3,0,1.3,2,0,2h-2.8c-1.3,0-1.3-2,0-2
	H32.6z M67.1,20.4c-0.3,0.5-0.9,0.6-1.4,0.4c-0.5-0.3-0.7-0.9-0.4-1.4l1.4-2.4c0.3-0.5,0.9-0.6,1.4-0.4c0.5,0.3,0.7,0.9,0.4,1.4
	L67.1,20.4z M74.9,29c-1.2,0.7-2.2-1.1-1-1.8l2.4-1.4c0.5-0.3,1.1-0.1,1.4,0.4c0.3,0.5,0.1,1.1-0.4,1.4L74.9,29z M77.4,40.3
	c-1.3,0-1.3-2,0-2h2.8c1.3,0,1.3,2,0,2H77.4z M56,16.9c0,1.3-2,1.3-2,0v-2.8c0-1.3,2-1.3,2,0V16.9z M23.9,83.5l5.3-19.9
	c0.1-0.3-0.1-0.7-0.4-0.7l-1.6-0.4c-0.3-0.1-0.6,0.1-0.7,0.4L21,83.2c-0.1,0.3,0.1,0.7,0.4,0.7c0.5,0.1,1.1,0.3,1.6,0.4
	c0.3,0.1,0.6-0.1,0.7-0.4L23.9,83.5z M40.2,53l-3.8,7.5l2.4-1.2c1.2-0.6,2.7,0.1,2.9,1.5l0.5,3.3l5.2-10c-0.2,0-0.3,0.1-0.5,0.2
	C44.8,55.6,41.9,55,40.2,53L40.2,53z M60.5,52.1c1.2-0.5,2.5-0.4,3.7,0.3c1.8,1.1,4.3,0,4.5-2.2c0.2-1.7-0.9-2-1-3.7
	c-0.1-1.3,0.5-2.8,1.5-3.6c1.3-1.1,2.3-0.6,3.3-1.9c1.3-1.7,0.5-4.2-1.7-4.7c-1.4-0.3-2.3-1.2-2.8-2.5c-0.5-1.3-0.5-2.5,0.2-3.8
	c1.1-1.8,0-4.3-2.2-4.5c-1.7-0.2-2,0.9-3.7,1c-1.3,0.1-2.8-0.5-3.6-1.5c-1.2-1.3-0.6-2.3-1.9-3.4c-1.7-1.3-4.2-0.5-4.7,1.6
	c-0.3,1.3-1.2,2.3-2.4,2.8c-0.7,0.3-1.3,0.5-2,0.4c-1.8-0.1-2-1.2-3.7-1c-2.2,0.2-3.3,2.7-2.2,4.5c0.7,1.2,0.8,2.5,0.2,3.8
	c-0.3,0.7-0.6,1.1-1.1,1.6c-1.3,1.2-2.3,0.6-3.3,1.9C36.2,39,37,41.5,39.2,42c1.3,0.3,2.3,1.2,2.8,2.4c0.3,0.7,0.5,1.3,0.4,2
	c-0.1,1.8-1.2,2-1,3.7c0.2,2.2,2.7,3.3,4.5,2.2c1.2-0.7,2.5-0.8,3.8-0.2c0.7,0.3,1.1,0.6,1.6,1.1c1.1,1.3,0.6,2.3,1.9,3.3
	c1.7,1.3,4.2,0.5,4.7-1.7C58.2,53.5,59.1,52.6,60.5,52.1L60.5,52.1z M62.6,54c0.2,0,0.3,0.1,0.4,0.2c2.2,1.4,5.1,0.9,6.7-1.2
	l3.8,7.5l-2.4-1.2c-1.2-0.6-2.7,0.1-2.9,1.5L67.8,64L62.6,54z M49.1,39c-0.4-0.5-0.3-1.1,0.1-1.5c0.5-0.4,1.1-0.3,1.5,0.1l2.7,3.2
	l5.9-5.8c0.4-0.4,1.1-0.4,1.5,0c0.4,0.4,0.4,1.1,0,1.5l-6.7,6.6c-0.5,0.4-1.2,0.4-1.6-0.1L49.1,39z M55,29.1c5.5,0,10,4.5,10,10
	s-4.5,10-10,10s-10-4.5-10-10S49.5,29.1,55,29.1z M94.4,86l4.5-1.8c1-0.4,1.6-1.6,1.1-2.6l-9.4-24.2c-0.4-1-1.6-1.5-2.6-1.1L83.5,58
	c-1,0.4-1.6,1.6-1.1,2.6l9.4,24.2C92.2,85.9,93.4,86.4,94.4,86z M89.1,83.4c0.1,0.3-0.1,0.6-0.4,0.7l-1.6,0.6
	c-0.2,0.1-0.3,0.1-0.5,0c-0.2-0.1-0.3-0.3-0.4-0.5l-7.6-19.5c-0.1-0.3,0-0.7,0.3-0.8l1.6-0.6c0.3-0.1,0.7,0,0.8,0.3L89.1,83.4z
	 M84.1,84.1l-0.3,0.1c-0.2-0.1-0.5,0-0.8,0.1c0,0-0.1,0-0.2,0c-3.8,1-1.5,2.7-6,5.9L61,76.3C60,75.5,59.3,75,58.5,75
	c-0.9-0.1-1.7,0.2-3,0.7l-8.3,2.9c-1.7,0.6-4,0.1-4.6-1.6c-0.3-0.9-0.3-1.8,0.2-2.7c0.5-0.8,1.2-1.5,2.3-1.8l11.4-3.9
	c0.5-0.2,1.9-0.5,2.5-0.4l8,1.5c0.1,0.1,0.2,0.1,0.3,0.1c0.8,0.1,1.6,0,2.4-0.2l7.8-2.8L84.1,84.1z M11.2,85.3
	c-1.1-0.3-1.7-1.4-1.4-2.5l6.7-25.1c0.3-1.1,1.4-1.7,2.5-1.4l4.7,1.2c1.1,0.3,1.7,1.4,1.4,2.5l-6.7,25.1c-0.3,1.1-1.4,1.7-2.5,1.4
	L11.2,85.3z M26.2,83l4.7-17.6l0.5,0.1c1.3,0.3,3.5,0.2,4.8-0.1c1.3-0.3,5.1-0.1,9,0.9c2,0.5,3.9,1.2,5.4,2.2l-6.1,2.1
	c-2.8,1-4.7,3.8-3.8,6.8l0,0.1c0.8,3,4.4,4.1,7.2,3.1l8.3-2.9c1.9-0.7,2.1-1,3.5,0.2l16.2,14.1c0,0.1,0.1,0.1,0.1,0.1
	c0.1,0.2,0.3,0.4,0.6,0.4c0.5,0.5,0.8,1.1,0.8,1.7c0.2,2.4-2.7,3.7-4.4,2.2L58.3,83.7c-1-0.9-2.4,0.6-1.3,1.6l11.4,10.1
	c0.6,0.6,0.9,1.1,0.9,1.9c0.2,2.4-2.7,3.7-4.4,2.2l-11.3-10c-0.4-0.4-1.1-0.3-1.4,0.1s-0.3,1.1,0.1,1.4l9.3,8.2
	c1.8,1.5,0.8,4.5-1.6,4.6c-0.8,0.1-1.4-0.2-2-0.7L48.9,95c-0.4-0.4-1.1-0.3-1.4,0.1s-0.3,1.1,0.1,1.4l6.4,5.7
	c0.5,0.5,0.8,1.2,0.9,1.8c0,0.8-0.2,1.4-0.7,2c-0.9,1-2.7,1.1-3.7,0.2l-10.1-8.9c-2-1.4-3.3-2.5-4.3-3.7c-2.5-2.8-2.9-6.5-4.9-8.6
	C29.8,83.5,28.1,83.3,26.2,83L26.2,83z"/>
</svg>
