<?xml version="1.0" encoding="utf-8"?>
<!-- Generator: Adobe Illustrator 27.1.1, SVG Export Plug-In . SVG Version: 6.00 Build 0)  -->
<svg version="1.1" id="Layer_1" xmlns="http://www.w3.org/2000/svg" xmlns:xlink="http://www.w3.org/1999/xlink" x="0px" y="0px"
	 viewBox="0 0 110 135" style="enable-background:new 0 0 110 135;" xml:space="preserve">
<style type="text/css">
	.st0{fill:#FFFFFF;}
</style>
<path class="st0" d="M80.3,40.4c3.6,0,6.5,2.9,6.5,6.5s-2.9,6.5-6.5,6.5s-6.5-2.9-6.5-6.5C73.7,43.4,76.7,40.4,80.3,40.4z M55,35.9
	c4.1,0,7.5,3.4,7.5,7.5s-3.4,7.5-7.5,7.5s-7.5-3.4-7.5-7.5S50.9,35.9,55,35.9z M48,51h1.3c1.6,1.2,3.6,1.9,5.7,1.9
	c2.1,0,4.1-0.7,5.7-1.9H62c2.8,0,5.5,1.2,7.3,3.3c1.5,1.8,2.4,4.1,2.4,6.4v7c0,1.3-1,2.4-2.4,2.5c0.2-0.3,0.3-0.6,0.2-0.9
	c-0.1-0.4-0.4-0.6-0.8-0.7l-8.8-1.3l-3.9-8c-0.4-0.7-1.5-0.7-1.8,0l-3.9,8l-8.8,1.3c-0.4,0.1-0.7,0.3-0.8,0.7
	c-0.1,0.3,0,0.6,0.2,0.9c-1.3-0.1-2.4-1.2-2.4-2.5v-7c0-2.4,0.9-4.6,2.4-6.4C42.5,52.2,45.2,51,48,51L48,51z M29.7,40.4
	c3.6,0,6.5,2.9,6.5,6.5s-2.9,6.5-6.5,6.5s-6.5-2.9-6.5-6.5C23.2,43.4,26.1,40.4,29.7,40.4z M35.9,75.6l-3.3,3.2
	c-0.2,0.2-0.4,0.6-0.3,0.9l0.8,4.5l-4-2.1C29,82,28.8,82,28.6,82s-0.3,0-0.5,0.1l-4,2.1l0.8-4.5c0.1-0.3-0.1-0.7-0.3-0.9l-3.3-3.2
	l4.5-0.7c0.3-0.1,0.6-0.3,0.8-0.6l2-4.1l2,4.1c0.1,0.3,0.4,0.5,0.8,0.6L35.9,75.6z M29.5,67.5c-0.4-0.7-1.5-0.7-1.8,0l-1.6,3.2h-9
	c-1.2,0-2.1-0.9-2.1-2.1v-6.2c0-4.7,3.8-8.5,8.5-8.5h1.1c1.4,1.1,3.2,1.7,5.1,1.7s3.6-0.6,5.1-1.7h1.1c0.8,0,1.6,0.1,2.3,0.3
	c-1.3,1.9-2,4.2-2,6.6v7c0,1.1,0.4,2.1,1.1,2.9h-6.2L29.5,67.5z M60.8,76.4l1.2,7.3l-6.6-3.4c-0.1-0.1-0.3-0.1-0.5-0.1
	s-0.3,0-0.5,0.1L48,83.7l1.2-7.3c0.1-0.3-0.1-0.7-0.3-0.9l-5.3-5.2l7.3-1.1c0.3-0.1,0.6-0.3,0.8-0.6L55,62l3.3,6.6
	c0.1,0.3,0.4,0.5,0.8,0.6l7.3,1.1l-5.3,5.2C60.8,75.8,60.7,76.1,60.8,76.4L60.8,76.4z M88.7,75.6l-3.3,3.2c-0.2,0.2-0.4,0.6-0.3,0.9
	l0.8,4.5l-4-2.1C81.8,82,81.6,82,81.4,82s-0.3,0-0.5,0.1l-4,2.1l0.8-4.5c0.1-0.3-0.1-0.7-0.3-0.9l-3.3-3.2l4.5-0.7
	c0.3-0.1,0.6-0.3,0.8-0.6l2-4.1l2,4.1c0.1,0.3,0.4,0.5,0.8,0.6L88.7,75.6z M95,68.6c0,1.2-0.9,2.1-2.1,2.1h-9l-1.6-3.2
	c-0.4-0.7-1.5-0.7-1.8,0l-1.6,3.2h-6.2c0.7-0.8,1.1-1.8,1.1-2.9v-7c0-2.4-0.7-4.6-2-6.6c0.7-0.2,1.5-0.3,2.3-0.3h1.1
	c1.4,1.1,3.2,1.7,5.1,1.7s3.6-0.6,5.1-1.7h1.1c4.7,0,8.5,3.8,8.5,8.5V68.6z"/>
</svg>
