<?xml version="1.0" encoding="utf-8"?>
<!-- Generator: Adobe Illustrator 27.1.1, SVG Export Plug-In . SVG Version: 6.00 Build 0)  -->
<svg version="1.1" id="Layer_1" xmlns="http://www.w3.org/2000/svg" xmlns:xlink="http://www.w3.org/1999/xlink" x="0px" y="0px"
	 viewBox="0 0 110 135" style="enable-background:new 0 0 110 135;" xml:space="preserve">
<style type="text/css">
	.st0{fill-rule:evenodd;clip-rule:evenodd;fill:#FFFFFF;}
</style>
<path class="st0" d="M28,50.9c0.4,0,0.8,0.4,0.8,0.8s-0.4,0.8-0.8,0.8h-4.1c-0.4,0-0.8-0.4-0.8-0.8s0.4-0.8,0.8-0.8H28z M31.1,36.8
	c0.4,0.2,0.5,0.7,0.3,1.1c-0.2,0.4-0.7,0.5-1.1,0.3l-3.5-1.9c-0.4-0.2-0.5-0.7-0.3-1.1c0.2-0.4,0.7-0.5,1.1-0.3L31.1,36.8z
	 M55.8,24.5c0,0.4-0.4,0.8-0.8,0.8s-0.8-0.4-0.8-0.8v-3.3c0-0.4,0.4-0.8,0.8-0.8s0.8,0.4,0.8,0.8V24.5z M41.6,27.9
	c0.2,0.4,0.1,0.9-0.3,1.1c-0.4,0.2-0.9,0.1-1.1-0.3l-1.8-3.1c-0.2-0.4-0.1-0.9,0.3-1.1c0.4-0.2,0.9-0.1,1.1,0.3L41.6,27.9z M82,52.5
	c-0.4,0-0.8-0.4-0.8-0.8s0.4-0.8,0.8-0.8h4.1c0.4,0,0.8,0.4,0.8,0.8s-0.4,0.8-0.8,0.8H82z M79.7,38.2c-0.4,0.2-0.9,0.1-1.1-0.3
	c-0.2-0.4-0.1-0.9,0.3-1.1l3.5-1.9c0.4-0.2,0.9-0.1,1.1,0.3c0.2,0.4,0.1,0.9-0.3,1.1L79.7,38.2z M69.8,28.7
	c-0.2,0.4-0.7,0.5-1.1,0.3s-0.5-0.7-0.3-1.1l1.8-3.1c0.2-0.4,0.7-0.5,1.1-0.3s0.5,0.7,0.3,1.1L69.8,28.7z M65.8,80.8H45.5
	c-0.6,0-1.1,0.2-1.4,0.6c-0.4,0.4-0.6,0.9-0.6,1.4v1.9c0,0.6,0.2,1.1,0.6,1.4c0.4,0.4,0.9,0.6,1.4,0.6h20.3c0.6,0,1.1-0.2,1.4-0.6
	s0.6-0.9,0.6-1.4v-1.9c0-0.6-0.2-1.1-0.6-1.4C66.9,81,66.4,80.8,65.8,80.8z M46.9,88c-0.1,0-0.2,0-0.3,0c-0.3,0.1-0.6,0.2-0.8,0.4
	c-0.3,0.3-0.5,0.7-0.5,1.1v1.6c0,0.4,0.2,0.8,0.5,1.1s0.7,0.5,1.1,0.5h17.5c0.4,0,0.8-0.2,1.1-0.5c0.3-0.3,0.5-0.7,0.5-1.1v-1.6
	c0-0.4-0.2-0.8-0.5-1.1C65.3,88.2,65,88,64.7,88c-0.1,0-0.2,0-0.3,0H46.9z M63.1,94H48.2c0.7,1.6,1.7,2.9,2.9,3.9
	c1.3,1.1,2.9,1.7,4.6,1.7s3.3-0.6,4.6-1.7C61.5,96.9,62.4,95.6,63.1,94L63.1,94z M46.3,39.8c0.9,0,1.7,0.4,2.2,0.9
	c0.6,0.6,0.9,1.4,0.9,2.2c0,0.9-0.4,1.7-0.9,2.2c-0.4,0.4-1,0.7-1.6,0.9v4.3l7.1,5.4v-6.2c-0.6-0.1-1.2-0.4-1.6-0.9
	c-0.6-0.6-0.9-1.4-0.9-2.2c0-0.9,0.4-1.7,0.9-2.2s1.4-0.9,2.2-0.9c0.9,0,1.7,0.4,2.2,0.9c0.6,0.6,0.9,1.4,0.9,2.2
	c0,0.9-0.4,1.7-0.9,2.2c-0.4,0.4-1,0.7-1.6,0.9v30h2.6l-0.1-18.2c0-0.2,0.1-0.4,0.2-0.5l4.2-3.4v-3.8c-0.6-0.1-1.2-0.4-1.6-0.9
	c-0.6-0.6-0.9-1.4-0.9-2.2c0-0.9,0.4-1.7,0.9-2.2c0.6-0.6,1.4-0.9,2.2-0.9c0.9,0,1.7,0.4,2.2,0.9c0.6,0.6,0.9,1.4,0.9,2.2
	c0,0.9-0.4,1.7-0.9,2.2c-0.4,0.4-1,0.7-1.6,0.9v4.1c0,0.2-0.1,0.4-0.2,0.5l-4.2,3.4L59,79.5h2.5V65c0-0.2,0.1-0.4,0.2-0.5l4.4-3.9
	c-0.2-0.4-0.4-0.9-0.4-1.5c0-0.9,0.4-1.7,0.9-2.2c0.6-0.6,1.4-0.9,2.2-0.9c0.9,0,1.7,0.4,2.2,0.9c0.6,0.6,0.9,1.4,0.9,2.2
	s-0.4,1.7-0.9,2.2c-0.6,0.6-1.4,0.9-2.2,0.9c-0.7,0-1.4-0.2-1.9-0.7L63,65.3v14.2h2.9c0.2,0,0.4,0,0.5,0c0-0.2,0-0.3,0-0.5
	c0.1-2.7,0.2-7,4.5-11.9l0,0c2-2,3.6-4.4,4.7-7s1.6-5.4,1.6-8.3c0-6-2.4-11.4-6.4-15.3c-3.8-4-9.3-6.5-15.3-6.5s-11.4,2.4-15.3,6.4
	c-3.9,3.9-6.4,9.4-6.4,15.3c0,3.2,0.7,6.1,1.9,8.8c1.3,2.8,3.1,5.3,5.4,7.3c0,0,0,0,0.1,0.1c4.1,4.8,4,8.8,4,11.2c0,0.1,0,0.2,0,0.3
	c0.1,0,0.3,0,0.4,0h4V65.3l-4.2-3.8c-0.5,0.3-1.1,0.5-1.7,0.5c-0.9,0-1.7-0.4-2.2-0.9c-0.6-0.6-0.9-1.4-0.9-2.2
	c0-0.9,0.4-1.7,0.9-2.2c0.6-0.6,1.4-0.9,2.2-0.9c0.9,0,1.7,0.4,2.2,0.9s0.9,1.4,0.9,2.2c0,0.6-0.2,1.2-0.5,1.7l4.4,3.9
	c0.1,0.1,0.2,0.3,0.2,0.5v14.5h3.2V57.4L46,51.1c-0.2-0.1-0.3-0.3-0.3-0.5V46c-0.6-0.1-1.2-0.4-1.6-0.9c-0.6-0.6-0.9-1.4-0.9-2.2
	c0-0.9,0.4-1.7,0.9-2.2C44.7,40.1,45.5,39.8,46.3,39.8L46.3,39.8z"/>
</svg>
