<svg id="Intuit_QuickBooks_logo" xmlns="http://www.w3.org/2000/svg" width="269.7" height="69" viewBox="0 0 269.7 69">
  <path id="Path_36" data-name="Path 36" d="M30.8,61.5A30.75,30.75,0,1,0,0,30.8,30.813,30.813,0,0,0,30.8,61.5Z" fill="#2ca01c"/>
  <path id="Path_37" data-name="Path 37" d="M20.5,18.8a12,12,0,0,0,0,24h1.7V38.4H20.5a7.5,7.5,0,0,1,0-15h4.1V46.6A4.375,4.375,0,0,0,29,51V18.8ZM41,42.7a12,12,0,0,0,0-24H39.3v4.4H41a7.5,7.5,0,1,1,0,15H36.9V15a4.439,4.439,0,0,0-4.4-4.4V42.7Z" fill="#fff"/>
  <path id="Path_38" data-name="Path 38" d="M90.8,69H86V57h-.1a7.5,7.5,0,0,1-6.3,3.1c-5.8,0-9.4-4.6-9.4-10.2s3.8-10,9.2-10A7.634,7.634,0,0,1,86,43.1h.1V40.4h4.6L90.8,69ZM80.6,56.1c3.5,0,5.6-3.1,5.6-6.1s-2.1-6.2-5.6-6.2c-3.7,0-5.5,3.1-5.5,6.1s1.8,6.2,5.5,6.2Zm31.5,3.4h-4.5V56.4h-.1a6.447,6.447,0,0,1-5.9,3.6c-5,0-7-3.8-7-7.7V40.4h4.8V51c0,2.3.5,5.1,3.6,5.1s4.4-2.6,4.4-5.2V40.4h4.8l-.1,19.1ZM116.9,40h4.8V59h-4.8Zm22.5,5.7a5.083,5.083,0,0,0-3.9-1.9c-3.5,0-5.2,3.1-5.2,6.1s1.8,6.1,5.4,6.1a5.281,5.281,0,0,0,4-1.7l3,3a9.655,9.655,0,0,1-7,2.7c-5.6,0-10.3-3.7-10.3-10.1s4.6-10.1,10.2-10.1c2.8,0,5.7,1.1,7.2,3l-3.4,2.9ZM145,29.5h4.8V48.4h.1l7.2-8h6.1L155,49l8.8,10.4h-6.3L150,49.6h-.1v9.8h-4.8L145,29.5Zm25.7,0V42.9h.1a7.916,7.916,0,0,1,6.4-3c5.4,0,9.2,4.4,9.2,10S182.9,60,177.1,60a7.387,7.387,0,0,1-6.5-3.4h-.1v2.9H166v-30Zm5.4,14.3c-3.5,0-5.6,3.2-5.6,6.2s2.1,6.1,5.6,6.1c3.7,0,5.5-3.2,5.5-6.2s-1.8-6.1-5.5-6.1Zm22.7-3.9c5.8,0,10.4,4,10.4,10S204.6,60,198.8,60a10.041,10.041,0,0,1-10.4-10.2C188.4,43.8,193.1,39.9,198.8,39.9Zm0,16.2c3.8,0,5.5-3.2,5.5-6.2s-1.7-6.1-5.5-6.1-5.5,3.1-5.5,6.1S195.1,56.1,198.8,56.1Zm22.8-16.2c5.8,0,10.4,4,10.4,10S227.4,60,221.6,60a10.041,10.041,0,0,1-10.4-10.2C211.2,43.8,215.9,39.9,221.6,39.9Zm0,16.2c3.8,0,5.5-3.2,5.5-6.2s-1.7-6.1-5.5-6.1-5.5,3.1-5.5,6.1S217.9,56.1,221.6,56.1Zm13.2-26.6h4.8v19h.1l7.2-8H253l-8.2,8.6,8.8,10.4h-6.3l-7.5-9.8h-.1v9.8h-4.8v-30Zm31.8,16a5.385,5.385,0,0,0-4.2-2.1c-1.5,0-3.1.6-3.1,2.1s1.5,1.9,4.1,2.5c2.8.7,6.1,1.9,6.1,5.7,0,4.6-3.8,6.3-7.9,6.3a10.787,10.787,0,0,1-7.8-3.1L257,54a6.3,6.3,0,0,0,4.9,2.4c1.4,0,3.1-.6,3.1-2.3,0-1.6-1.5-2.1-4.4-2.7-2.8-.7-5.6-1.8-5.6-5.4,0-4.2,3.8-6.1,7.6-6.1,2.7,0,5.6,1,7.1,2.9l-3.1,2.7Zm-144.2-31a8.481,8.481,0,0,0,8.8,8.4c4.9,0,8.8-3.5,8.8-8.4V3.4h-4.8V13.9a3.971,3.971,0,0,1-4,4.3c-2.3,0-4-1.7-4-4.4V3.4h-4.8Zm30.2-6.7h5.7V22.4h4.8V7.8h5.7V3.4H152.7l-.1,4.4Zm-3-4.4h-4.8V22.5h4.8ZM103.2,7.8h5.7V22.4h4.8V7.8h5.7V3.4H103.3l-.1,4.4Zm-25-4.4H73.4V22.5h4.8Zm22.5,8A8.481,8.481,0,0,0,91.9,3c-4.9,0-8.8,3.5-8.8,8.4V22.5h4.8V11.9a4.01,4.01,0,1,1,8,0V22.4h4.8v-11Z" fill="#fff"/>
</svg>
