<svg xmlns="http://www.w3.org/2000/svg" height="800" width="1200" id="svg2623" version="1.1" viewBox="-11.2503 -7.137875 97.5026 42.82725"><g transform="translate(84.626 -199.0695)" id="layer1"><g transform="translate(.5 -.5)" id="g2659"><path class="st0" d="M-19.7475 199.57c-5.7943 0-9.5779 3.9687-9.5779 10.5304 0 8.1492 5.7944 10.4775 9.9483 10.4775 3.1221 0 6.0855-1.27 8.2286-3.519l-2.6723-2.6723c-1.4288 1.27-3.0692 2.0373-5.5033 2.0373-3.228 0-5.3975-1.8785-5.3975-4.4714h14.3933c-.0265-.0265 2.487-12.3825-9.4192-12.3825m-4.9741 8.837c0-3.4924 2.6458-5.1593 5.4768-5.1593s5.3975 1.7198 5.3975 5.1594z" id="path2629" fill="#00dc06" stroke-width=".2646"/><path class="st0" d="M-72.7435 208.0631c-1.8521-.2381-7.1702-.0264-7.1702-2.4606 0-1.4288 2.249-2.2225 4.2862-2.2225 2.1696-.0265 4.2863.582 6.0854 1.7462l2.7782-2.7516c-.8202-.6615-3.863-2.8046-8.8636-2.8046-4.5508 0-8.6518 2.3812-8.6518 6.1912 0 5.8473 7.0643 5.8473 10.0012 6.1384 1.7992.1852 3.4131.291 3.4131 2.0373 0 1.6404-2.487 2.54-4.4185 2.54-3.1486 0-5.0271-1.032-6.8792-2.6988l-2.9633 2.9898c2.5664 2.487 6.0325 3.8365 9.6044 3.81 5.2916 0 9.128-2.3283 9.128-7.0115 0-3.0956-2.0901-4.9477-6.35-5.5033" id="path2631" fill="#00dc06" stroke-width=".2646"/><path class="st0" d="M-57.5564 199.57c-2.937-.0265-5.8209.979-8.1227 2.8046l2.778 2.778c1.5611-1.164 3.4397-1.7726 5.3711-1.7462 3.519 0 4.5773 1.4023 4.5773 2.9898v1.9844h-6.2706c-2.3283 0-6.8792.582-6.8792 5.6886 0 3.757 2.1432 6.5087 7.276 6.5087 2.5665 0 4.5244-.8202 5.8738-2.4342v2.0373h4.5509v-13.4673c0-4.7095-2.884-7.1437-9.1546-7.1437m4.6302 13.2556c0 3.8894-2.7781 3.6777-5.2388 3.6777-2.4606 0-4.101-.6615-4.101-2.4077 0-1.614 1.2964-2.1696 3.9952-2.1696h5.3446z" id="path2633" fill="#00dc06" stroke-width=".2646"/><path class="st0" d="M-34.3525 199.9933v2.249c-1.561-1.7727-3.4131-2.6723-5.9266-2.6723-4.3127 0-6.5352 2.4077-7.276 5.0006-.2911.9525-.3705 2.7781-.3705 5.4769 0 2.54.0265 4.8683.8996 6.641 1.2435 2.4871 4.2333 3.8894 6.7469 3.8894 2.4341 0 4.4979-.9525 5.9266-2.593v1.27c0 1.4818-.5027 2.4607-1.4552 3.228-.9525.7673-2.1431 1.2435-3.81 1.2435-1.5081 0-2.9369-.8202-3.757-1.4022l-3.0692 3.0691c1.9843 1.614 4.3391 2.6988 6.9056 2.7252 2.4606.053 4.8683-.7408 6.7998-2.3018 1.8256-1.4288 2.9898-4.154 2.9898-7.0115v-18.8119zm0 10.0542c0 1.561-.0264 2.7252-.1587 3.3337-.291 1.2965-1.7727 3.0163-4.4715 3.0163-.6879 0-4.1275-.3969-4.5244-3.3867-.1058-.979-.1587-1.9844-.1322-2.9633 0-2.3284.1058-3.0692.2116-3.6513.2381-1.1641 1.7727-2.9104 4.445-2.9104 3.2544 0 4.3127 2.2225 4.4715 3.0956.1323 1.1378.1852 2.302.1587 3.466" id="path2635" fill="#00dc06" stroke-width=".2646"/></g></g><style type="text/css" id="style2625">.st0{fill:#00dc06}</style></svg>