<svg xmlns="http://www.w3.org/2000/svg" xmlns:xlink="http://www.w3.org/1999/xlink" width="125.621" height="125.621" viewBox="0 0 125.621 125.621">
  <defs>
    <clipPath id="clip-path">
      <path id="path16" d="M0-300H125.621v125.621H0Z" transform="translate(0 300.002)"/>
    </clipPath>
  </defs>
  <g id="layer1" transform="translate(0 0)">
    <g id="g10" transform="translate(0 0)">
      <g id="g12">
        <g id="g14" clip-path="url(#clip-path)">
          <path id="path20" d="M89.634-166.706a43.42,43.42,0,0,0,43.42-43.42,43.42,43.42,0,0,0-43.42-43.42,43.42,43.42,0,0,0-43.42,43.42,43.42,43.42,0,0,0,43.42,43.42" transform="translate(-26.863 272.999)" fill="#1ab4d7"/>
          <path id="path22" d="M79.77-163.6l7.41-7.428a1.327,1.327,0,0,0,.383-.933,1.329,1.329,0,0,0-1.328-1.328,1.316,1.316,0,0,0-.944.4l-7.4,7.4-7.436-7.411a1.328,1.328,0,0,0-.937-.384,1.329,1.329,0,0,0-1.328,1.327,1.319,1.319,0,0,0,.4.945l7.409,7.408-7.405,7.419a1.323,1.323,0,0,0-.4.951,1.328,1.328,0,0,0,1.328,1.327,1.316,1.316,0,0,0,.937-.388l7.425-7.415,7.4,7.388a1.324,1.324,0,0,0,.962.416,1.329,1.329,0,0,0,1.328-1.328,1.318,1.318,0,0,0-.386-.936Z" transform="translate(-39.634 226.35)" fill="#fff"/>
          <path id="path24" d="M201.051-153.507a2.415,2.415,0,0,0,2.414,2.413,2.415,2.415,0,0,0,2.411-2.413,2.415,2.415,0,0,0-2.411-2.413,2.415,2.415,0,0,0-2.414,2.413" transform="translate(-116.864 216.252)" fill="#fff"/>
          <path id="path26" d="M186.308-163.669a7,7,0,0,1,6.987-6.987,7,7,0,0,1,6.986,6.987,6.994,6.994,0,0,1-6.986,6.985,6.994,6.994,0,0,1-6.987-6.985m-2.749,0a9.746,9.746,0,0,0,9.736,9.734,9.748,9.748,0,0,0,9.738-9.734,9.749,9.749,0,0,0-9.738-9.736,9.747,9.747,0,0,0-9.736,9.736" transform="translate(-106.697 226.416)" fill="#fff"/>
          <path id="path28" d="M173-173.01h-.408a5.523,5.523,0,0,0-3.4,1.148,1.33,1.33,0,0,0-1.3-1.044,1.313,1.313,0,0,0-.932.384,1.313,1.313,0,0,0-.385.932l0,16.4a1.329,1.329,0,0,0,1.328,1.323,1.329,1.329,0,0,0,1.327-1.325v-10.082c0-3.36.307-4.717,3.186-5.077a4.57,4.57,0,0,1,.557-.028,1.305,1.305,0,0,0,1.347-1.3A1.331,1.331,0,0,0,173-173.01" transform="translate(-96.828 226.186)" fill="#fff"/>
          <path id="path30" d="M117.03-165.239c0-.036,0-.074,0-.112a7.034,7.034,0,0,1,6.817-5.3,7.033,7.033,0,0,1,6.842,5.413Zm16.383-.251a9.713,9.713,0,0,0-4.313-6.363,9.813,9.813,0,0,0-10.848.288,9.846,9.846,0,0,0-4.1,7.995,9.586,9.586,0,0,0,.29,2.348,9.812,9.812,0,0,0,8.263,7.272,9.267,9.267,0,0,0,3.5-.232,9.586,9.586,0,0,0,2.91-1.242,10.446,10.446,0,0,0,2.49-2.359c.015-.018.031-.033.046-.052a1.444,1.444,0,0,0-.15-2.034,1.33,1.33,0,0,0-1.96.3q-.22.313-.465.606a7.619,7.619,0,0,1-1.919,1.548,6.988,6.988,0,0,1-3.264.824,7.136,7.136,0,0,1-6.663-4.663,6.988,6.988,0,0,1-.3-1.116c-.009-.072-.016-.141-.018-.2l13.858,0a2.453,2.453,0,0,0,2.64-2.914" transform="translate(-66.351 226.383)" fill="#fff"/>
        </g>
      </g>
    </g>
  </g>
</svg>
